<svg width="17" height="15" viewBox="0 0 17 15" fill="none" xmlns="http://www.w3.org/2000/svg">
<g filter="url(#filter0_d_8_528)">
<mask id="path-1-outside-1_8_528" maskUnits="userSpaceOnUse" x="-1" y="-1" width="19" height="16" fill="black">
<rect fill="white" x="-1" y="-1" width="19" height="16"/>
<path d="M4.85352 0.015625C7.44466 0.015625 8.74023 0.402995 8.74023 1.17773C10.6803 7.87044 11.9759 12.0794 12.627 13.8047L12.2363 14H9.32617L8.93555 13.8047C9.19596 13.3815 9.32617 12.9941 9.32617 12.6426V12.4473C9.06576 9.98633 8.67513 8.75586 8.1543 8.75586H7.95898C3.61003 12.252 1.15234 14 0.585938 14C0.260417 14 0.0651042 13.7396 0 13.2188C0 8.11458 1.87826 4.42643 5.63477 2.1543V1.76367C5.63477 1.56836 5.18229 1.05078 4.27734 0.210938C4.52474 0.0807292 4.7168 0.015625 4.85352 0.015625ZM3.7793 6.98828V9.84961H4.22852C6.16862 8.54102 7.27214 7.58724 7.53906 6.98828C7.14193 4.67708 6.79362 3.52148 6.49414 3.52148H6.03516C4.53125 4.50456 3.7793 5.66016 3.7793 6.98828ZM15.8301 14C13.7142 12.2227 12.6562 11.2526 12.6562 11.0898C13.4375 10.2695 13.8281 9.42643 13.8281 8.56055V2.34961C13.8281 1.54232 13.5482 0.829427 12.9883 0.210938V0.015625H16.9922V0.210938L16.1621 1.37305V14H15.8301Z"/>
</mask>
<path d="M4.85352 0.015625C7.44466 0.015625 8.74023 0.402995 8.74023 1.17773C10.6803 7.87044 11.9759 12.0794 12.627 13.8047L12.2363 14H9.32617L8.93555 13.8047C9.19596 13.3815 9.32617 12.9941 9.32617 12.6426V12.4473C9.06576 9.98633 8.67513 8.75586 8.1543 8.75586H7.95898C3.61003 12.252 1.15234 14 0.585938 14C0.260417 14 0.0651042 13.7396 0 13.2188C0 8.11458 1.87826 4.42643 5.63477 2.1543V1.76367C5.63477 1.56836 5.18229 1.05078 4.27734 0.210938C4.52474 0.0807292 4.7168 0.015625 4.85352 0.015625ZM3.7793 6.98828V9.84961H4.22852C6.16862 8.54102 7.27214 7.58724 7.53906 6.98828C7.14193 4.67708 6.79362 3.52148 6.49414 3.52148H6.03516C4.53125 4.50456 3.7793 5.66016 3.7793 6.98828ZM15.8301 14C13.7142 12.2227 12.6562 11.2526 12.6562 11.0898C13.4375 10.2695 13.8281 9.42643 13.8281 8.56055V2.34961C13.8281 1.54232 13.5482 0.829427 12.9883 0.210938V0.015625H16.9922V0.210938L16.1621 1.37305V14H15.8301Z" fill="url(#paint0_linear_8_528)"/>
<path d="M8.74023 1.17773H7.74023C7.74023 1.27194 7.75355 1.36567 7.77978 1.45616L8.74023 1.17773ZM12.627 13.8047L13.0742 14.6991C13.5326 14.4699 13.7435 13.9312 13.5626 13.4516L12.627 13.8047ZM12.2363 14V15C12.3916 15 12.5447 14.9639 12.6835 14.8944L12.2363 14ZM9.32617 14L8.87896 14.8944C9.01781 14.9639 9.17093 15 9.32617 15V14ZM8.93555 13.8047L8.08389 13.2806C7.93688 13.5195 7.89696 13.8091 7.97387 14.0789C8.05078 14.3486 8.23745 14.5737 8.48833 14.6991L8.93555 13.8047ZM9.32617 12.4473H10.3262C10.3262 12.4121 10.3243 12.377 10.3206 12.342L9.32617 12.4473ZM7.95898 8.75586V7.75586C7.7311 7.75586 7.51005 7.83369 7.33244 7.97647L7.95898 8.75586ZM0 13.2188H-1C-1 13.2602 -0.997421 13.3016 -0.992278 13.3428L0 13.2188ZM5.63477 2.1543L6.15231 3.00995C6.45179 2.82881 6.63477 2.50429 6.63477 2.1543H5.63477ZM4.27734 0.210938L3.8116 -0.673981C3.52458 -0.522917 3.32865 -0.242028 3.28602 0.0795069C3.24339 0.401042 3.35935 0.723281 3.5971 0.943919L4.27734 0.210938ZM3.7793 9.84961H2.7793C2.7793 10.4019 3.22701 10.8496 3.7793 10.8496V9.84961ZM4.22852 9.84961V10.8496C4.42778 10.8496 4.6225 10.7901 4.7877 10.6787L4.22852 9.84961ZM7.53906 6.98828L8.45246 7.39534C8.53302 7.21458 8.55813 7.01398 8.52462 6.81893L7.53906 6.98828ZM6.03516 3.52148V2.52148C5.84081 2.52148 5.65068 2.57811 5.488 2.68445L6.03516 3.52148ZM4.85352 1.01562C6.12366 1.01562 6.97722 1.11329 7.48209 1.26424C7.60188 1.30006 7.68813 1.33494 7.74765 1.3646C7.77688 1.37917 7.79748 1.39139 7.81112 1.40036C7.82474 1.40932 7.83007 1.41415 7.82959 1.41372C7.80904 1.39529 7.74023 1.30483 7.74023 1.17773H9.74023C9.74023 0.663268 9.50948 0.233865 9.16504 -0.0750976C8.84932 -0.358294 8.44981 -0.533899 8.05502 -0.651938C7.26431 -0.888356 6.17452 -0.984375 4.85352 -0.984375V1.01562ZM7.77978 1.45616C9.71621 8.13621 11.0234 12.3877 11.6914 14.1577L13.5626 13.4516C12.9284 11.7712 11.6445 7.60468 9.70069 0.899313L7.77978 1.45616ZM12.1797 12.9103L11.7891 13.1056L12.6835 14.8944L13.0742 14.6991L12.1797 12.9103ZM12.2363 13H9.32617V15H12.2363V13ZM9.77339 13.1056L9.38276 12.9103L8.48833 14.6991L8.87896 14.8944L9.77339 13.1056ZM9.7872 14.3288C10.1064 13.81 10.3262 13.2406 10.3262 12.6426H8.32617C8.32617 12.7477 8.28549 12.953 8.08389 13.2806L9.7872 14.3288ZM10.3262 12.6426V12.4473H8.32617V12.6426H10.3262ZM10.3206 12.342C10.1885 11.0937 10.0176 10.0899 9.79101 9.37613C9.67959 9.02515 9.53349 8.67407 9.32407 8.39135C9.11437 8.10826 8.73029 7.75586 8.1543 7.75586V9.75586C7.83872 9.75586 7.69878 9.55727 7.71695 9.5818C7.73539 9.60669 7.80088 9.71704 7.88477 9.98129C8.04881 10.498 8.20341 11.3399 8.33172 12.5525L10.3206 12.342ZM8.1543 7.75586H7.95898V9.75586H8.1543V7.75586ZM7.33244 7.97647C5.16277 9.72066 3.47913 11.0172 2.2744 11.8741C1.67008 12.3039 1.20318 12.6109 0.864908 12.8065C0.694874 12.9048 0.575577 12.9642 0.499356 12.9962C0.394775 13.0402 0.447944 13 0.585938 13V15C0.865533 15 1.11941 14.9051 1.27463 14.8399C1.45822 14.7627 1.65783 14.6582 1.8658 14.538C2.28356 14.2965 2.80909 13.9481 3.43361 13.5039C4.68656 12.6127 6.40625 11.2872 8.58553 9.53525L7.33244 7.97647ZM0.585938 13C0.641279 13 0.724004 13.012 0.813425 13.0567C0.902846 13.1015 0.962108 13.1604 0.995313 13.2047C1.02545 13.2449 1.02907 13.2657 1.02193 13.2443C1.01496 13.2234 1.00249 13.1764 0.992278 13.0947L-0.992278 13.3428C-0.950018 13.6809 -0.85217 14.0747 -0.604688 14.4047C-0.318177 14.7867 0.10842 15 0.585938 15V13ZM1 13.2188C1 8.3973 2.74867 5.06865 6.15231 3.00995L5.11722 1.29864C1.00784 3.78421 -1 7.83187 -1 13.2188H1ZM6.63477 2.1543V1.76367H4.63477V2.1543H6.63477ZM6.63477 1.76367C6.63477 1.40468 6.45903 1.123 6.39422 1.02089C6.2988 0.870545 6.17691 0.717975 6.04828 0.570835C5.78795 0.273053 5.41895 -0.0938797 4.95759 -0.522044L3.5971 0.943919C4.04069 1.3556 4.35039 1.66738 4.54254 1.88717C4.64015 1.99882 4.68793 2.06476 4.70563 2.09264C4.71424 2.1062 4.70356 2.09189 4.68831 2.0547C4.67645 2.02577 4.63477 1.91934 4.63477 1.76367H6.63477ZM4.74309 1.09586C4.83632 1.04678 4.8964 1.02222 4.92797 1.01152C4.9428 1.00649 4.94452 1.00687 4.93485 1.00878C4.9257 1.0106 4.8972 1.01562 4.85352 1.01562V-0.984375C4.45835 -0.984375 4.08233 -0.816474 3.8116 -0.673981L4.74309 1.09586ZM2.7793 6.98828V9.84961H4.7793V6.98828H2.7793ZM3.7793 10.8496H4.22852V8.84961H3.7793V10.8496ZM4.7877 10.6787C5.77361 10.0137 6.57089 9.42302 7.16514 8.9094C7.72428 8.42614 8.22119 7.91429 8.45246 7.39534L6.62566 6.58122C6.59001 6.66123 6.4017 6.92575 5.85732 7.39626C5.34805 7.83642 4.62353 8.37697 3.66933 9.02057L4.7877 10.6787ZM8.52462 6.81893C8.32429 5.65308 8.12975 4.73765 7.93743 4.0996C7.84349 3.78792 7.73464 3.48901 7.6002 3.24918C7.53385 3.13081 7.43432 2.97738 7.28852 2.84225C7.14203 2.70646 6.87235 2.52148 6.49414 2.52148V4.52148C6.1908 4.52148 5.99752 4.37262 5.92894 4.30906C5.86107 4.24615 5.84099 4.20106 5.85561 4.22714C5.88312 4.27621 5.94232 4.41065 6.02253 4.67677C6.17852 5.19432 6.3567 6.01229 6.55351 7.15763L8.52462 6.81893ZM6.49414 2.52148H6.03516V4.52148H6.49414V2.52148ZM5.488 2.68445C3.81184 3.78013 2.7793 5.20919 2.7793 6.98828H4.7793C4.7793 6.11112 5.25066 5.22899 6.58231 4.35852L5.488 2.68445ZM15.8301 14L15.1869 14.7657C15.367 14.917 15.5948 15 15.8301 15V14ZM12.6562 11.0898L11.9321 10.4002C11.755 10.5861 11.6562 10.8331 11.6562 11.0898H12.6562ZM12.9883 0.210938H11.9883C11.9883 0.458979 12.0805 0.698169 12.2469 0.882055L12.9883 0.210938ZM12.9883 0.015625V-0.984375C12.436 -0.984375 11.9883 -0.53666 11.9883 0.015625H12.9883ZM16.9922 0.015625H17.9922C17.9922 -0.53666 17.5445 -0.984375 16.9922 -0.984375V0.015625ZM16.9922 0.210938L17.8059 0.792176C17.9271 0.622575 17.9922 0.419361 17.9922 0.210938H16.9922ZM16.1621 1.37305L15.3484 0.791809C15.2272 0.96141 15.1621 1.16462 15.1621 1.37305H16.1621ZM16.1621 14V15C16.7144 15 17.1621 14.5523 17.1621 14H16.1621ZM16.4733 13.2343C15.4183 12.3481 14.6382 11.6724 14.1255 11.2024C13.867 10.9653 13.6911 10.7939 13.5855 10.6807C13.5306 10.6219 13.513 10.5983 13.5153 10.6015C13.5159 10.6023 13.5373 10.6313 13.5625 10.6815C13.5761 10.7086 13.6562 10.8644 13.6562 11.0898H11.6562C11.6562 11.3357 11.7447 11.5181 11.7748 11.5781C11.8165 11.6613 11.8628 11.7295 11.8964 11.7759C11.9648 11.8702 12.0464 11.963 12.1238 12.0458C12.2826 12.2159 12.5034 12.4285 12.7739 12.6765C13.3192 13.1765 14.126 13.8745 15.1869 14.7657L16.4733 13.2343ZM13.3804 11.7795C14.2824 10.8324 14.8281 9.7547 14.8281 8.56055H12.8281C12.8281 9.09816 12.5926 9.70664 11.9321 10.4002L13.3804 11.7795ZM14.8281 8.56055V2.34961H12.8281V8.56055H14.8281ZM14.8281 2.34961C14.8281 1.2853 14.4499 0.33543 13.7296 -0.46018L12.2469 0.882055C12.6465 1.32342 12.8281 1.79934 12.8281 2.34961H14.8281ZM13.9883 0.210938V0.015625H11.9883V0.210938H13.9883ZM12.9883 1.01562H16.9922V-0.984375H12.9883V1.01562ZM15.9922 0.015625V0.210938H17.9922V0.015625H15.9922ZM16.1785 -0.370301L15.3484 0.791809L16.9758 1.95429L17.8059 0.792176L16.1785 -0.370301ZM15.1621 1.37305V14H17.1621V1.37305H15.1621ZM16.1621 13H15.8301V15H16.1621V13Z" fill="#FFDD80" mask="url(#path-1-outside-1_8_528)"/>
</g>
<defs>
<filter id="filter0_d_8_528" x="0" y="0.015625" width="16.9922" height="14.9844" filterUnits="userSpaceOnUse" color-interpolation-filters="sRGB">
<feFlood flood-opacity="0" result="BackgroundImageFix"/>
<feColorMatrix in="SourceAlpha" type="matrix" values="0 0 0 0 0 0 0 0 0 0 0 0 0 0 0 0 0 0 127 0" result="hardAlpha"/>
<feOffset dy="1"/>
<feComposite in2="hardAlpha" operator="out"/>
<feColorMatrix type="matrix" values="0 0 0 0 0.620833 0 0 0 0 0.343183 0 0 0 0 0.204358 0 0 0 1 0"/>
<feBlend mode="normal" in2="BackgroundImageFix" result="effect1_dropShadow_8_528"/>
<feBlend mode="normal" in="SourceGraphic" in2="effect1_dropShadow_8_528" result="shape"/>
</filter>
<linearGradient id="paint0_linear_8_528" x1="9.5" y1="-4" x2="9.5" y2="19" gradientUnits="userSpaceOnUse">
<stop stop-color="#F7A74F"/>
<stop offset="1" stop-color="#F87F46"/>
</linearGradient>
</defs>
</svg>
