<svg width="17" height="11" viewBox="0 0 17 11" fill="none" xmlns="http://www.w3.org/2000/svg">
<path fill-rule="evenodd" clip-rule="evenodd" d="M3.72673 5.53653L5.62637 7.54441C5.69743 7.61439 5.75442 7.69878 5.79395 7.79255C5.83347 7.88632 5.85473 7.98754 5.85644 8.09018C5.85816 8.19282 5.84029 8.29477 5.80392 8.38995C5.76754 8.48514 5.71341 8.5716 5.64473 8.64419C5.57605 8.71677 5.49425 8.774 5.4042 8.81245C5.31415 8.85089 5.21769 8.86977 5.12058 8.86796C5.02348 8.86615 4.92771 8.84369 4.839 8.8019C4.75028 8.76013 4.67044 8.69989 4.60423 8.62478L1.4703 5.3123L0.959229 4.77212L1.4703 4.23193L4.60423 0.919448C4.74133 0.784421 4.92266 0.710912 5.11002 0.714406C5.29738 0.7179 5.47614 0.798125 5.60865 0.93818C5.74116 1.07823 5.81706 1.26718 5.82036 1.46522C5.82367 1.66326 5.75412 1.85492 5.62637 1.99983L3.72673 4.0077H13.2539C14.085 4.0077 14.8822 4.35669 15.4699 4.9779C16.0576 5.59911 16.3878 6.44165 16.3878 7.32018C16.3878 8.1987 16.0576 9.04124 15.4699 9.66245C14.8822 10.2837 14.085 10.6327 13.2539 10.6327H11.3253C11.1335 10.6327 10.9495 10.5521 10.8139 10.4088C10.6783 10.2654 10.6021 10.071 10.6021 9.86824C10.6021 9.6655 10.6783 9.47107 10.8139 9.32771C10.9495 9.18436 11.1335 9.10382 11.3253 9.10382H13.2539C13.7014 9.10382 14.1306 8.9159 14.4471 8.5814C14.7636 8.2469 14.9414 7.79323 14.9414 7.32018C14.9414 6.84712 14.7636 6.39345 14.4471 6.05895C14.1306 5.72445 13.7014 5.53653 13.2539 5.53653H3.72673Z" fill="white"/>
</svg>
