<svg width="8" height="18" viewBox="0 0 8 18" fill="none" xmlns="http://www.w3.org/2000/svg">
<path d="M5.35358 5.14099C6.49856 5.14099 7.42676 4.18201 7.42676 2.99905C7.42676 1.81609 6.49856 0.857117 5.35358 0.857117C4.20859 0.857117 3.2804 1.81609 3.2804 2.99905C3.2804 4.18201 4.20859 5.14099 5.35358 5.14099Z" fill="white"/>
<path d="M7.47346 13.8319C7.41619 13.7921 7.3518 13.7646 7.28407 13.7508C7.21634 13.7371 7.14663 13.7374 7.07904 13.7519C7.01145 13.7664 6.94734 13.7946 6.89047 13.835C6.83359 13.8755 6.78511 13.9272 6.74785 13.9872C6.24681 14.7539 5.63302 15.435 4.92863 16.006C4.7576 16.1399 4.12009 16.6486 3.85058 16.5415C3.66399 16.4826 3.77284 16.1024 3.80912 15.9417L4.08381 15.101C4.19784 14.7583 6.18291 8.67524 6.40059 7.97911C6.72194 6.96169 6.582 5.96033 5.11522 6.2013C4.71613 6.24414 0.668246 6.78498 0.595685 6.79033C0.527622 6.7949 0.461096 6.81328 0.399907 6.84441C0.338717 6.87555 0.284062 6.91883 0.239062 6.97178C0.194063 7.02474 0.159599 7.08634 0.13764 7.15305C0.11568 7.21977 0.106655 7.2903 0.111079 7.36062C0.115503 7.43094 0.13329 7.49968 0.163424 7.56289C0.193559 7.62611 0.235449 7.68258 0.286706 7.72907C0.337963 7.77557 0.39758 7.81117 0.462156 7.83386C0.526731 7.85655 0.595 7.86587 0.663063 7.8613C0.663063 7.8613 2.21795 7.65246 2.38899 7.6364C2.47659 7.62756 2.56481 7.6451 2.64298 7.68691C2.72115 7.72872 2.78594 7.793 2.82954 7.87201C2.92345 8.17195 2.91058 8.49668 2.79326 8.78769C2.6585 9.32317 0.528307 15.5241 0.460929 15.8828C0.388661 16.1831 0.408726 16.4991 0.518333 16.787C0.62794 17.0749 0.821644 17.3204 1.07252 17.4893C1.54339 17.8135 2.10405 17.9696 2.66887 17.9337C3.21807 17.9272 3.76125 17.8146 4.2704 17.6017C5.56095 17.0663 6.90852 15.6419 7.61859 14.5227C7.67973 14.409 7.69872 14.2762 7.67202 14.1491C7.64531 14.022 7.57473 13.9092 7.47346 13.8319Z" fill="white"/>
</svg>
