<svg width="98" height="118" viewBox="0 0 98 118" fill="none" xmlns="http://www.w3.org/2000/svg">
<path d="M88.1746 1.46114L81.2872 1.31753L75.605 48.174L25.5765 45.6326L25.589 0.124889L19.6507 -2.99527e-06L19.7944 50.9589L80.6378 53.6626L88.1746 1.46114Z" fill="url(#paint0_linear_8_403)"/>
<path d="M90.1603 79.7322L89.8543 79.7322L8.92955 77.6779L8.94204 78.6269L8.96076 80.238C8.96076 80.2442 8.96076 80.2567 8.96076 80.2629L8.98572 82.1549L9.07315 88.2555L87.0444 97.0286L88.6742 87.9683L89.13 85.4331L89.8356 81.4931L90.154 79.7197L90.1603 79.7322Z" fill="#E85E00"/>
<path d="M89.0238 85.4831L85.3771 85.2895L9.06682 81.2308C9.06682 81.2308 3.47829 23.3034 8.46116 17.465C8.51111 17.4089 8.56729 17.3526 8.63598 17.3027C10.3157 15.9352 17.74 15.4544 27.5684 15.5293C52.2205 15.7167 92.0272 19.3882 94.5686 21.3115C98.1653 24.0339 89.0238 85.4831 89.0238 85.4831Z" fill="url(#paint1_radial_8_403)"/>
<path d="M8.61107 82.1299C8.61107 82.1299 -0.517931 92.8324 0.281331 100.563C0.212644 100.644 0.168935 100.731 0.125226 100.819C0.0815098 100.919 0.0377934 101.019 0.000333025 101.118C-0.0184052 110.316 0.855786 112.008 0.855786 112.008L94.1191 117.897C94.1191 117.897 97.1725 107.918 97.16 107.157C97.16 107.157 96.9352 107.125 96.5044 107.069C97.1787 100.201 88.493 87.6934 88.493 87.6934L8.61107 82.1299Z" fill="url(#paint2_radial_8_403)"/>
<path style="mix-blend-mode:multiply" opacity="0.6" d="M96.5418 106.314C96.5418 106.158 96.5419 106.008 96.5294 105.852C96.5294 105.733 96.5169 105.614 96.5106 105.489C96.5106 105.427 96.5044 105.365 96.4919 105.302C96.4919 105.271 96.4919 105.24 96.4856 105.202C96.4794 105.096 96.4669 104.984 96.4482 104.871C96.4232 104.709 96.4045 104.54 96.3733 104.372C96.342 104.203 96.3108 104.028 96.2796 103.86C96.2421 103.685 96.2047 103.51 96.1672 103.335C96.1297 103.16 96.0798 102.985 96.0361 102.804C96.0361 102.792 96.0298 102.779 96.0298 102.761C95.9861 102.598 95.9362 102.43 95.8924 102.267C95.8362 102.086 95.7863 101.905 95.7301 101.724C95.6802 101.556 95.6302 101.393 95.574 101.231C95.4366 100.819 95.2868 100.407 95.1307 100.001C95.0745 99.8447 95.012 99.6823 94.9496 99.5262C94.8747 99.3389 94.7997 99.1578 94.7248 98.9767C94.6374 98.7769 94.5562 98.5771 94.4688 98.3772C94.4001 98.2087 94.3189 98.0401 94.2502 97.8777C92.9452 94.9617 91.3467 92.183 90.1728 90.2848C90.1041 90.1849 90.0479 90.0912 89.9917 89.9975C89.873 89.8102 89.7606 89.6292 89.6545 89.4606C89.3673 89.011 89.1237 88.6301 88.9302 88.3428C88.874 88.2492 88.8178 88.168 88.7678 88.0993C88.7366 88.0556 88.7116 88.0119 88.6866 87.9744C88.5618 87.7934 88.4931 87.6934 88.4931 87.6934C88.5243 87.2563 88.543 86.8193 88.5742 86.3822C88.5867 86.1074 88.799 85.789 89.1425 85.4393L89.8481 81.4992C89.7669 81.5055 89.6857 81.5179 89.6045 81.5304C54.3685 86.2011 18.0336 80.3003 8.9545 78.6206L8.89207 79.27L8.69225 81.3368L8.61732 82.1236C8.61732 82.1236 8.61731 82.1236 8.60483 82.1361C8.60483 82.1361 8.59861 82.1486 8.59236 82.1548C8.57987 82.1736 8.55487 82.1985 8.52365 82.236C8.36754 82.4233 8.0366 82.823 7.59327 83.4037C7.50585 83.5223 7.40593 83.6409 7.31227 83.7721C7.2311 83.8782 7.1437 83.9969 7.05627 84.1155C6.98759 84.2029 6.91265 84.3028 6.85021 84.3965C6.84396 84.409 6.83149 84.4215 6.82525 84.434C6.72534 84.5714 6.61919 84.715 6.51928 84.8586C6.36942 85.0646 6.21332 85.2832 6.05722 85.508C5.9698 85.6266 5.88236 85.7577 5.80118 85.8889C5.67631 86.0762 5.55143 86.2573 5.42655 86.4508C5.35786 86.5445 5.29542 86.6381 5.23298 86.7381C5.03941 87.0315 4.84585 87.3375 4.65227 87.6497C4.58359 87.7559 4.52111 87.862 4.45867 87.9619C4.25261 88.2929 4.04656 88.6301 3.84675 88.986C3.72187 89.192 3.60322 89.4106 3.48458 89.6229C2.97255 90.5408 2.47926 91.5024 2.04217 92.489C1.96724 92.6451 1.89858 92.8012 1.83613 92.9573C1.70501 93.2695 1.57385 93.5817 1.45521 93.9002C1.39901 94.0438 1.34285 94.1812 1.2929 94.3248C1.06186 94.9742 0.862027 95.6236 0.693441 96.273C0.649724 96.4291 0.618512 96.5914 0.581044 96.7475C0.556066 96.8724 0.524846 96.9973 0.499868 97.1222C0.462407 97.3095 0.424916 97.5031 0.399938 97.6904C0.374967 97.8153 0.356252 97.9464 0.343763 98.0713C0.325032 98.2087 0.312535 98.3398 0.300046 98.4834C0.293805 98.5584 0.28758 98.6395 0.281339 98.7145C0.268849 98.8393 0.262578 98.958 0.256337 99.0766C0.256337 99.2327 0.243833 99.3763 0.243833 99.5262C0.243833 99.8759 0.256337 100.213 0.293798 100.556C0.231359 100.638 0.181401 100.725 0.137692 100.806C0.0939837 100.906 0.0565157 101.006 0.0127993 101.112C14.0248 101.106 96.9477 107.119 96.5106 107.063C96.5356 106.819 96.5481 106.563 96.5481 106.307L96.5418 106.314Z" fill="url(#paint3_linear_8_403)"/>
<path d="M94.5687 21.3052L29.0671 18.3829L8.46127 17.4588L8.63608 17.2965L12.6886 13.425L26.7193 13.8684L92.4707 15.9539L94.5687 21.3052Z" fill="#EA6400"/>
<path style="mix-blend-mode:multiply" opacity="0.6" d="M85.3772 85.2895L9.06687 81.2308C9.06687 81.2308 3.47834 23.3034 8.4612 17.465C8.51116 17.4088 8.56733 17.3526 8.63602 17.3027L12.6885 13.4313L26.7255 13.8746C26.994 14.4054 27.275 14.9548 27.5684 15.5293C28.0305 16.4347 28.5363 17.3901 29.0733 18.3892C37.709 34.4492 55.3738 61.7114 85.3772 85.2957L85.3772 85.2895Z" fill="url(#paint4_linear_8_403)"/>
<defs>
<linearGradient id="paint0_linear_8_403" x1="-589.135" y1="438.483" x2="-517.824" y2="392.574" gradientUnits="userSpaceOnUse">
<stop offset="0.02" stop-color="#C25E33"/>
<stop offset="0.99" stop-color="#81182E"/>
</linearGradient>
<radialGradient id="paint1_radial_8_403" cx="0" cy="0" r="1" gradientUnits="userSpaceOnUse" gradientTransform="translate(50.8967 50.4968) rotate(90) scale(40.0253 40.0253)">
<stop stop-color="#FFB72D"/>
<stop offset="1" stop-color="#FF8600"/>
</radialGradient>
<radialGradient id="paint2_radial_8_403" cx="0" cy="0" r="1" gradientUnits="userSpaceOnUse" gradientTransform="translate(48.2094 100.123) rotate(-89.78) scale(36.5722 36.5722)">
<stop stop-color="#FFB72D"/>
<stop offset="1" stop-color="#FF8600"/>
</radialGradient>
<linearGradient id="paint3_linear_8_403" x1="147.338" y1="26.188" x2="99.6327" y2="59.8005" gradientUnits="userSpaceOnUse">
<stop stop-color="white"/>
<stop offset="0.98" stop-color="#AA0038"/>
</linearGradient>
<linearGradient id="paint4_linear_8_403" x1="98.465" y1="2.02938" x2="33.5816" y2="64.1341" gradientUnits="userSpaceOnUse">
<stop stop-color="white"/>
<stop offset="0.98" stop-color="#AA0038"/>
</linearGradient>
</defs>
</svg>
