<svg width="98" height="118" viewBox="0 0 98 118" fill="none" xmlns="http://www.w3.org/2000/svg">
<path d="M88.1746 116.435L81.2872 116.579L75.605 69.7226L25.5765 72.264L25.589 117.772L19.6507 117.897L19.7944 66.9377L80.6378 64.234L88.1746 116.435Z" fill="url(#paint0_linear_8_391)"/>
<path d="M90.1603 38.1645L89.8543 38.1645L8.92955 40.2188L8.94204 39.2697L8.96076 37.6587C8.96076 37.6525 8.96076 37.64 8.96076 37.6337L8.98572 35.7417L9.07315 29.6411L87.0444 20.8681L88.6742 29.9284L89.13 32.4635L89.8356 36.4036L90.154 38.177L90.1603 38.1645Z" fill="#E85E00"/>
<path d="M89.0238 32.4135L85.3771 32.6071L9.06682 36.6658C9.06682 36.6658 3.47829 94.5932 8.46116 100.432C8.51111 100.488 8.56729 100.544 8.63598 100.594C10.3157 101.961 17.74 102.442 27.5684 102.367C52.2205 102.18 92.0272 98.5084 94.5686 96.5851C98.1653 93.8627 89.0238 32.4135 89.0238 32.4135Z" fill="url(#paint1_radial_8_391)"/>
<path d="M8.61107 35.7667C8.61107 35.7667 -0.517931 25.0642 0.281331 17.3339C0.212644 17.2527 0.168935 17.1653 0.125226 17.0779C0.0815098 16.978 0.0377934 16.8781 0.000333025 16.7781C-0.0184052 7.58045 0.855786 5.88827 0.855786 5.88827L94.1191 -5.36461e-06C94.1191 -5.36461e-06 97.1725 9.97823 97.16 10.74C97.16 10.74 96.9352 10.7712 96.5044 10.8274C97.1787 17.696 88.493 30.2032 88.493 30.2032L8.61107 35.7667Z" fill="url(#paint2_radial_8_391)"/>
<path style="mix-blend-mode:multiply" opacity="0.6" d="M96.5418 11.583C96.5418 11.7391 96.5419 11.8889 96.5294 12.045C96.5294 12.1637 96.5169 12.2823 96.5106 12.4072C96.5106 12.4697 96.5044 12.5321 96.4919 12.5945C96.4919 12.6257 96.4919 12.657 96.4856 12.6945C96.4794 12.8006 96.4669 12.913 96.4482 13.0254C96.4232 13.1877 96.4045 13.3563 96.3733 13.5249C96.342 13.6935 96.3108 13.8683 96.2796 14.0369C96.2421 14.2118 96.2047 14.3866 96.1672 14.5615C96.1297 14.7363 96.0798 14.9111 96.0361 15.0922C96.0361 15.1047 96.0298 15.1172 96.0298 15.1359C95.9861 15.2983 95.9362 15.4668 95.8924 15.6292C95.8362 15.8103 95.7863 15.9914 95.7301 16.1725C95.6802 16.3411 95.6302 16.5034 95.574 16.6658C95.4366 17.0779 95.2868 17.49 95.1307 17.8958C95.0745 18.0519 95.012 18.2143 94.9496 18.3704C94.8747 18.5577 94.7997 18.7388 94.7248 18.9199C94.6374 19.1197 94.5562 19.3195 94.4688 19.5194C94.4001 19.688 94.3189 19.8565 94.2502 20.0189C92.9452 22.9349 91.3467 25.7136 90.1728 27.6118C90.1041 27.7117 90.0479 27.8054 89.9917 27.8991C89.873 28.0864 89.7606 28.2675 89.6545 28.436C89.3673 28.8856 89.1237 29.2666 88.9302 29.5538C88.874 29.6474 88.8178 29.7286 88.7678 29.7973C88.7366 29.841 88.7116 29.8847 88.6866 29.9222C88.5618 30.1033 88.4931 30.2032 88.4931 30.2032C88.5243 30.6403 88.543 31.0773 88.5742 31.5144C88.5867 31.7892 88.799 32.1076 89.1425 32.4573L89.8481 36.3974C89.7669 36.3912 89.6857 36.3787 89.6045 36.3662C54.3685 31.6955 18.0336 37.5963 8.9545 39.276L8.89207 38.6266L8.69225 36.5598L8.61732 35.773C8.61732 35.773 8.61731 35.773 8.60483 35.7605C8.60483 35.7605 8.59861 35.748 8.59236 35.7418C8.57987 35.723 8.55487 35.6981 8.52365 35.6606C8.36754 35.4733 8.0366 35.0736 7.59327 34.4929C7.50585 34.3743 7.40593 34.2557 7.31227 34.1245C7.2311 34.0184 7.1437 33.8997 7.05627 33.7811C6.98759 33.6937 6.91265 33.5938 6.85021 33.5001C6.84396 33.4876 6.83149 33.4751 6.82525 33.4626C6.72534 33.3253 6.61919 33.1816 6.51928 33.038C6.36942 32.832 6.21332 32.6134 6.05722 32.3886C5.9698 32.27 5.88236 32.1389 5.80118 32.0078C5.67631 31.8204 5.55143 31.6393 5.42655 31.4458C5.35786 31.3521 5.29542 31.2585 5.23298 31.1586C5.03941 30.8651 4.84585 30.5591 4.65227 30.2469C4.58359 30.1407 4.52111 30.0346 4.45867 29.9347C4.25261 29.6037 4.04656 29.2665 3.84675 28.9106C3.72187 28.7046 3.60322 28.486 3.48458 28.2737C2.97255 27.3558 2.47926 26.3942 2.04217 25.4076C1.96724 25.2515 1.89858 25.0954 1.83613 24.9393C1.70501 24.6271 1.57385 24.3149 1.45521 23.9964C1.39901 23.8528 1.34285 23.7155 1.2929 23.5718C1.06186 22.9224 0.862027 22.273 0.693441 21.6237C0.649724 21.4675 0.618512 21.3052 0.581044 21.1491C0.556066 21.0242 0.524846 20.8993 0.499868 20.7745C0.462407 20.5871 0.424916 20.3935 0.399938 20.2062C0.374967 20.0813 0.356252 19.9502 0.343763 19.8253C0.325032 19.6879 0.312535 19.5568 0.300046 19.4132C0.293805 19.3383 0.28758 19.2571 0.281339 19.1822C0.268849 19.0573 0.262578 18.9387 0.256337 18.82C0.256337 18.6639 0.243833 18.5203 0.243833 18.3704C0.243833 18.0207 0.256337 17.6836 0.293798 17.3401C0.231359 17.259 0.181401 17.1715 0.137692 17.0904C0.0939837 16.9905 0.0565157 16.8906 0.0127993 16.7844C14.0248 16.7906 96.9477 10.7775 96.5106 10.8337C96.5356 11.0772 96.5481 11.3332 96.5481 11.5892L96.5418 11.583Z" fill="url(#paint3_linear_8_391)"/>
<path d="M94.5687 96.5914L29.0671 99.5137L8.46127 100.438L8.63608 100.6L12.6886 104.472L26.7193 104.028L92.4707 101.943L94.5687 96.5914Z" fill="#EA6400"/>
<path style="mix-blend-mode:multiply" opacity="0.6" d="M85.3772 32.6071L9.06687 36.6659C9.06687 36.6659 3.47834 94.5932 8.4612 100.432C8.51116 100.488 8.56733 100.544 8.63602 100.594L12.6885 104.465L26.7255 104.022C26.994 103.491 27.275 102.942 27.5684 102.367C28.0305 101.462 28.5363 100.507 29.0733 99.5074C37.709 83.4474 55.3738 56.1852 85.3772 32.6009L85.3772 32.6071Z" fill="url(#paint4_linear_8_391)"/>
<defs>
<linearGradient id="paint0_linear_8_391" x1="-589.135" y1="-320.587" x2="-517.824" y2="-274.677" gradientUnits="userSpaceOnUse">
<stop offset="0.02" stop-color="#C25E33"/>
<stop offset="0.99" stop-color="#81182E"/>
</linearGradient>
<radialGradient id="paint1_radial_8_391" cx="0" cy="0" r="1" gradientUnits="userSpaceOnUse" gradientTransform="translate(50.8967 67.3998) rotate(-90) scale(40.0253 40.0253)">
<stop stop-color="#FFB72D"/>
<stop offset="1" stop-color="#FF8600"/>
</radialGradient>
<radialGradient id="paint2_radial_8_391" cx="0" cy="0" r="1" gradientUnits="userSpaceOnUse" gradientTransform="translate(48.2094 17.7736) rotate(89.78) scale(36.5722 36.5722)">
<stop stop-color="#FFB72D"/>
<stop offset="1" stop-color="#FF8600"/>
</radialGradient>
<linearGradient id="paint3_linear_8_391" x1="147.338" y1="91.7086" x2="99.6327" y2="58.0961" gradientUnits="userSpaceOnUse">
<stop stop-color="white"/>
<stop offset="0.98" stop-color="#AA0038"/>
</linearGradient>
<linearGradient id="paint4_linear_8_391" x1="98.465" y1="115.867" x2="33.5816" y2="53.7625" gradientUnits="userSpaceOnUse">
<stop stop-color="white"/>
<stop offset="0.98" stop-color="#AA0038"/>
</linearGradient>
</defs>
</svg>
