<svg width="19" height="24" viewBox="0 0 19 24" fill="none" xmlns="http://www.w3.org/2000/svg">
<g filter="url(#filter0_d_9_21)">
<path fill-rule="evenodd" clip-rule="evenodd" d="M2.41826 1.89661C2.97055 1.89661 3.41827 2.34432 3.41827 2.89661V5.18852C3.96121 4.70282 4.56368 4.28254 5.21395 3.93893C6.70276 3.15222 8.38242 2.79897 10.062 2.91932C11.7416 3.03968 13.3537 3.62881 14.7151 4.61977C16.0766 5.61072 17.1327 6.96373 17.7635 8.52502C17.9703 9.03709 17.7229 9.61992 17.2109 9.8268C16.6988 10.0337 16.116 9.78627 15.9091 9.27419C15.4185 8.05986 14.5971 7.00751 13.5382 6.23677C12.4793 5.46603 11.2254 5.00782 9.91905 4.91421C8.61271 4.8206 7.30631 5.09535 6.14834 5.70724C5.54789 6.02453 4.99983 6.42587 4.51944 6.89661H7.41826C7.97055 6.89661 8.41826 7.34432 8.41826 7.89661C8.41826 8.44889 7.97055 8.89661 7.41826 8.89661H2.41826C1.86598 8.89661 1.41827 8.44889 1.41827 7.89661V2.89661C1.41827 2.34432 1.86598 1.89661 2.41826 1.89661ZM1.62555 13.9665C2.1376 13.7595 2.72046 14.0068 2.92741 14.5189C3.4181 15.733 4.23953 16.7851 5.29833 17.5557C6.35714 18.3263 7.61086 18.7844 8.91703 18.878C10.2232 18.9716 11.5294 18.6969 12.6873 18.0852C13.2875 17.7681 13.8354 17.367 14.3156 16.8966H11.4183C10.866 16.8966 10.4183 16.4489 10.4183 15.8966C10.4183 15.3443 10.866 14.8966 11.4183 14.8966H16.4183C16.9706 14.8966 17.4183 15.3443 17.4183 15.8966V20.8966C17.4183 21.4489 16.9706 21.8966 16.4183 21.8966C15.866 21.8966 15.4183 21.4489 15.4183 20.8966V18.6033C14.875 19.0893 14.2722 19.5098 13.6216 19.8536C12.1329 20.6401 10.4534 20.9932 8.77407 20.8729C7.09471 20.7525 5.48278 20.1635 4.12146 19.1728C2.76014 18.182 1.70402 16.8293 1.07312 15.2683C0.866176 14.7563 1.11351 14.1734 1.62555 13.9665Z" fill="url(#paint0_linear_9_21)"/>
<path d="M3.91827 2.89661C3.91827 2.06818 3.24669 1.39661 2.41826 1.39661C1.58984 1.39661 0.918265 2.06818 0.918265 2.89661V7.89661C0.918265 8.72503 1.58984 9.39661 2.41826 9.39661H7.41826C8.24669 9.39661 8.91826 8.72503 8.91826 7.89661C8.91826 7.06818 8.24669 6.39661 7.41826 6.39661H5.95415C6.09324 6.30899 6.23592 6.22647 6.38194 6.14931C7.4572 5.58113 8.67029 5.32601 9.88332 5.41293C11.0963 5.49985 12.2607 5.92534 13.2439 6.64103C14.2272 7.35671 14.9899 8.33389 15.4455 9.46149C15.7558 10.2296 16.63 10.6007 17.3981 10.2904C18.1663 9.98008 18.5374 9.10584 18.2271 8.33773C17.5612 6.6897 16.4465 5.26152 15.0094 4.21551C13.5723 3.16951 11.8706 2.54764 10.0977 2.4206C8.32485 2.29356 6.55188 2.66644 4.98035 3.49685C4.61108 3.69198 4.25641 3.91054 3.91827 4.15066V2.89661ZM3.39098 14.3315C3.08055 13.5635 2.20626 13.1925 1.43819 13.5029C0.670125 13.8133 0.299131 14.6876 0.609554 15.4557C1.2755 17.1034 2.39029 18.5313 3.82724 19.5771C5.26419 20.6228 6.96567 21.2446 8.73833 21.3716C10.511 21.4986 12.2837 21.1259 13.8551 20.2957C14.2248 20.1004 14.5798 19.8816 14.9183 19.6412V20.8966C14.9183 21.725 15.5898 22.3966 16.4183 22.3966C17.2467 22.3966 17.9183 21.725 17.9183 20.8966V15.8966C17.9183 15.0682 17.2467 14.3966 16.4183 14.3966H11.4183C10.5898 14.3966 9.91827 15.0682 9.91827 15.8966C9.91827 16.725 10.5898 17.3966 11.4183 17.3966H12.8804C12.7416 17.4839 12.5994 17.5662 12.4537 17.6431C11.3786 18.2111 10.1656 18.4662 8.95277 18.3793C7.7399 18.2924 6.57573 17.867 5.59255 17.1514C4.60937 16.4359 3.84662 15.4589 3.39098 14.3315Z" stroke="white" stroke-linecap="round" stroke-linejoin="round"/>
</g>
<defs>
<filter id="filter0_d_9_21" x="-0.000244141" y="0.896606" width="18.837" height="23" filterUnits="userSpaceOnUse" color-interpolation-filters="sRGB">
<feFlood flood-opacity="0" result="BackgroundImageFix"/>
<feColorMatrix in="SourceAlpha" type="matrix" values="0 0 0 0 0 0 0 0 0 0 0 0 0 0 0 0 0 0 127 0" result="hardAlpha"/>
<feOffset dy="1"/>
<feComposite in2="hardAlpha" operator="out"/>
<feColorMatrix type="matrix" values="0 0 0 0 0.380392 0 0 0 0 0.388235 0 0 0 0 0.454902 0 0 0 1 0"/>
<feBlend mode="normal" in2="BackgroundImageFix" result="effect1_dropShadow_9_21"/>
<feBlend mode="normal" in="SourceGraphic" in2="effect1_dropShadow_9_21" result="shape"/>
</filter>
<linearGradient id="paint0_linear_9_21" x1="9.41826" y1="1.89661" x2="9.41826" y2="21.8966" gradientUnits="userSpaceOnUse">
<stop stop-color="#838796"/>
<stop offset="1" stop-color="#727685"/>
</linearGradient>
</defs>
</svg>
