<svg width="11" height="15" viewBox="0 0 11 15" fill="none" xmlns="http://www.w3.org/2000/svg">
<g filter="url(#filter0_d_12_208)">
<mask id="path-1-outside-1_12_208" maskUnits="userSpaceOnUse" x="-0.872559" y="-1" width="13" height="16" fill="black">
<rect fill="white" x="-0.872559" y="-1" width="13" height="16"/>
<path d="M4.01416 14C2.39307 14 1.1626 13.3522 0.322754 12.0566V11.8613C0.322754 11.6595 0.579915 11.4023 1.09424 11.0898H1.28955C1.28955 12.0208 1.74528 12.7305 2.65674 13.2188H3.62354C4.91911 12.8672 5.56689 12.4147 5.56689 11.8613V11.0898C5.56689 10.7253 3.75374 8.00391 0.127441 2.92578V2.54492C1.23421 0.858724 2.91715 0.015625 5.17627 0.015625C8.54215 0.575521 10.2251 1.54557 10.2251 2.92578C10.0819 2.92578 9.56429 3.31641 8.67236 4.09766H8.28174C8.28174 2.02083 7.24658 0.982422 5.17627 0.982422C4.09554 0.982422 3.44775 1.63021 3.23291 2.92578C3.23291 3.42057 5.11117 6.26888 8.86768 11.4707V11.8613C7.50049 13.2871 5.88265 14 4.01416 14Z"/>
</mask>
<path d="M4.01416 14C2.39307 14 1.1626 13.3522 0.322754 12.0566V11.8613C0.322754 11.6595 0.579915 11.4023 1.09424 11.0898H1.28955C1.28955 12.0208 1.74528 12.7305 2.65674 13.2188H3.62354C4.91911 12.8672 5.56689 12.4147 5.56689 11.8613V11.0898C5.56689 10.7253 3.75374 8.00391 0.127441 2.92578V2.54492C1.23421 0.858724 2.91715 0.015625 5.17627 0.015625C8.54215 0.575521 10.2251 1.54557 10.2251 2.92578C10.0819 2.92578 9.56429 3.31641 8.67236 4.09766H8.28174C8.28174 2.02083 7.24658 0.982422 5.17627 0.982422C4.09554 0.982422 3.44775 1.63021 3.23291 2.92578C3.23291 3.42057 5.11117 6.26888 8.86768 11.4707V11.8613C7.50049 13.2871 5.88265 14 4.01416 14Z" fill="url(#paint0_linear_12_208)"/>
<path d="M0.322754 12.0566H-0.677246C-0.677246 12.2497 -0.62137 12.4386 -0.516363 12.6006L0.322754 12.0566ZM1.09424 11.0898V10.0898C0.911104 10.0898 0.731487 10.1401 0.574978 10.2352L1.09424 11.0898ZM1.28955 11.0898H2.28955C2.28955 10.5376 1.84184 10.0898 1.28955 10.0898V11.0898ZM2.65674 13.2188L2.18452 14.1002C2.32976 14.178 2.49197 14.2188 2.65674 14.2188V13.2188ZM3.62354 13.2188V14.2188C3.71199 14.2188 3.80005 14.207 3.88542 14.1838L3.62354 13.2188ZM0.127441 2.92578H-0.872559C-0.872559 3.13416 -0.807461 3.33734 -0.686363 3.50692L0.127441 2.92578ZM0.127441 2.54492L-0.70856 1.99619C-0.815554 2.1592 -0.872559 2.34994 -0.872559 2.54492H0.127441ZM5.17627 0.015625L5.34036 -0.97082C5.28613 -0.979841 5.23125 -0.984375 5.17627 -0.984375V0.015625ZM10.2251 2.92578V3.92578C10.7774 3.92578 11.2251 3.47807 11.2251 2.92578H10.2251ZM8.67236 4.09766V5.09766C8.91476 5.09766 9.14891 5.00961 9.33126 4.84989L8.67236 4.09766ZM8.28174 4.09766H7.28174C7.28174 4.64994 7.72945 5.09766 8.28174 5.09766V4.09766ZM3.23291 2.92578L2.24638 2.76219C2.23742 2.81626 2.23291 2.87097 2.23291 2.92578H3.23291ZM8.86768 11.4707H9.86768C9.86768 11.2605 9.80144 11.0557 9.67838 10.8853L8.86768 11.4707ZM8.86768 11.8613L9.58946 12.5534C9.76799 12.3673 9.86768 12.1193 9.86768 11.8613H8.86768ZM4.01416 13C2.71164 13 1.80656 12.5072 1.16187 11.5127L-0.516363 12.6006C0.518631 14.1972 2.07449 15 4.01416 15V13ZM1.32275 12.0566V11.8613H-0.677246V12.0566H1.32275ZM1.32275 11.8613C1.32275 12.0263 1.27022 12.1405 1.24337 12.1884C1.21727 12.235 1.20048 12.2464 1.22273 12.2242C1.24275 12.2042 1.28255 12.1686 1.35072 12.1183C1.41785 12.0687 1.50443 12.0107 1.6135 11.9445L0.574978 10.2352C0.287763 10.4097 0.0182841 10.6002 -0.191482 10.81C-0.370321 10.9888 -0.677246 11.3495 -0.677246 11.8613H1.32275ZM1.09424 12.0898H1.28955V10.0898H1.09424V12.0898ZM0.289551 11.0898C0.289551 11.7263 0.447912 12.3281 0.789918 12.8607C1.12843 13.3878 1.61231 13.7937 2.18452 14.1002L3.12896 12.3373C2.7897 12.1555 2.59 11.9625 2.47278 11.7799C2.35905 11.6029 2.28955 11.3844 2.28955 11.0898H0.289551ZM2.65674 14.2188H3.62354V12.2188H2.65674V14.2188ZM3.88542 14.1838C4.57794 13.9959 5.19185 13.7581 5.65369 13.4355C6.1227 13.1079 6.56689 12.5902 6.56689 11.8613H4.56689C4.56689 11.6859 4.6872 11.671 4.50842 11.7959C4.32247 11.9258 3.9647 12.09 3.36165 12.2537L3.88542 14.1838ZM6.56689 11.8613V11.0898H4.56689V11.8613H6.56689ZM6.56689 11.0898C6.56689 10.8968 6.51488 10.7373 6.49131 10.6687C6.46046 10.579 6.42224 10.4916 6.38509 10.4134C6.31026 10.256 6.20861 10.0713 6.08912 9.86793C5.84816 9.45783 5.49596 8.90641 5.03923 8.22092C4.12351 6.84652 2.75614 4.88615 0.941245 2.34464L-0.686363 3.50692C1.12505 6.04354 2.4774 7.98291 3.37483 9.32986C3.82468 10.005 4.15241 10.5197 4.36474 10.8811C4.47189 11.0635 4.54022 11.1909 4.57872 11.2719C4.59823 11.313 4.60251 11.3264 4.59998 11.319C4.59851 11.3147 4.592 11.2955 4.58522 11.2649C4.57926 11.238 4.56689 11.1751 4.56689 11.0898H6.56689ZM1.12744 2.92578V2.54492H-0.872559V2.92578H1.12744ZM0.963443 3.09365C1.86067 1.7267 3.20644 1.01562 5.17627 1.01562V-0.984375C2.62787 -0.984375 0.607755 -0.00924993 -0.70856 1.99619L0.963443 3.09365ZM5.01218 1.00207C6.65247 1.27492 7.77596 1.63317 8.46351 2.02947C9.13603 2.41711 9.2251 2.73041 9.2251 2.92578H11.2251C11.2251 1.74094 10.4727 0.879114 9.46227 0.296705C8.46688 -0.277045 7.06595 -0.683778 5.34036 -0.97082L5.01218 1.00207ZM10.2251 1.92578C10.0111 1.92578 9.84292 1.99062 9.77261 2.01961C9.68314 2.05651 9.60285 2.10021 9.53861 2.13818C9.4092 2.21468 9.26908 2.3134 9.12709 2.42056C8.83922 2.63782 8.46542 2.94955 8.01347 3.34542L9.33126 4.84989C9.77123 4.46451 10.1022 4.1903 10.3319 4.01694C10.4487 3.92879 10.5206 3.88102 10.5564 3.85987C10.5747 3.84901 10.5653 3.85609 10.5351 3.86857C10.524 3.87315 10.4033 3.92578 10.2251 3.92578V1.92578ZM8.67236 3.09766H8.28174V5.09766H8.67236V3.09766ZM9.28174 4.09766C9.28174 2.90589 8.98416 1.82823 8.21359 1.05523C7.44244 0.281664 6.36636 -0.0175781 5.17627 -0.0175781V1.98242C6.05649 1.98242 6.53314 2.20238 6.79715 2.46723C7.06174 2.73264 7.28174 3.2126 7.28174 4.09766H9.28174ZM5.17627 -0.0175781C4.42197 -0.0175781 3.7176 0.216333 3.17278 0.761155C2.64982 1.28411 2.37371 1.99438 2.24638 2.76219L4.21944 3.08938C4.30696 2.56161 4.46216 2.3002 4.58699 2.17537C4.68995 2.0724 4.84984 1.98242 5.17627 1.98242V-0.0175781ZM2.23291 2.92578C2.23291 3.21613 2.34552 3.48575 2.40346 3.61939C2.48151 3.79945 2.58803 4.00508 2.71326 4.22798C2.96525 4.6765 3.33251 5.26442 3.80677 5.98361C4.75773 7.42571 6.17627 9.45186 8.05697 12.0562L9.67838 10.8853C7.80257 8.28772 6.40373 6.28881 5.47643 4.8826C5.01156 4.17764 4.67448 3.63559 4.45691 3.24834C4.34736 3.05335 4.27778 2.91464 4.23845 2.82391C4.17899 2.68676 4.23291 2.75913 4.23291 2.92578H2.23291ZM7.86768 11.4707V11.8613H9.86768V11.4707H7.86768ZM8.14589 11.1692C6.95524 12.4109 5.59321 13 4.01416 13V15C6.17209 15 8.04574 14.1633 9.58946 12.5534L8.14589 11.1692Z" fill="white" mask="url(#path-1-outside-1_12_208)"/>
</g>
<defs>
<filter id="filter0_d_12_208" x="0.127441" y="0.015625" width="10.0977" height="14.9844" filterUnits="userSpaceOnUse" color-interpolation-filters="sRGB">
<feFlood flood-opacity="0" result="BackgroundImageFix"/>
<feColorMatrix in="SourceAlpha" type="matrix" values="0 0 0 0 0 0 0 0 0 0 0 0 0 0 0 0 0 0 127 0" result="hardAlpha"/>
<feOffset dy="1"/>
<feComposite in2="hardAlpha" operator="out"/>
<feColorMatrix type="matrix" values="0 0 0 0 0.380392 0 0 0 0 0.388235 0 0 0 0 0.454902 0 0 0 1 0"/>
<feBlend mode="normal" in2="BackgroundImageFix" result="effect1_dropShadow_12_208"/>
<feBlend mode="normal" in="SourceGraphic" in2="effect1_dropShadow_12_208" result="shape"/>
</filter>
<linearGradient id="paint0_linear_12_208" x1="5.62744" y1="-4" x2="5.62744" y2="19" gradientUnits="userSpaceOnUse">
<stop stop-color="#838796"/>
<stop offset="1" stop-color="#727685"/>
</linearGradient>
</defs>
</svg>
