<svg width="222" height="41" viewBox="0 0 222 41" fill="none" xmlns="http://www.w3.org/2000/svg">
<path d="M221.562 3.05L221.621 4V37C221.621 39.6667 220.035 41 216.863 41H5.13686C1.96493 41 0.378967 39.6667 0.378967 37V4L0.497922 3.05C0.815115 1.01667 2.36142 0 5.13686 0H216.863C219.639 0 221.205 1.01667 221.562 3.05ZM219.242 4L219.183 3.3L219.242 3.35C218.965 2.45 218.172 2 216.863 2H48.5527L45.2221 4.8L41.8916 2H30.77L28.0937 4.25L25.4174 2H5.13686C3.82844 2 3.07511 2.43333 2.87687 3.3L2.81737 3.5L2.75791 4V27.9L6.02897 30.65L2.75791 33.4V37C2.75791 38.3333 3.5509 39 5.13686 39H114.449L117.721 36.25L120.992 39H171.604L173.447 37.45L175.291 39H216.863C218.449 39 219.242 38.3333 219.242 37V14.1L216.387 11.7L219.242 9.3V4Z" fill="#727685"/>
</svg>
