<svg width="340" height="690" viewBox="0 0 340 690" fill="none" xmlns="http://www.w3.org/2000/svg">
<path d="M175.31 17.426L165.044 7.16H17.9571C10.7591 7.16 7.16008 10.759 7.16008 17.957V584.605L13.3551 590.8L7.16008 596.818V614.341L17.0721 624.253L7.16008 634.165V672.043C7.16008 679.241 10.7591 682.84 17.9571 682.84H49.1091L56.8971 675.052L64.6851 682.84H321.866C329.182 682.84 332.84 679.241 332.84 672.043V651.865L318.326 637.351L332.84 622.66V77.429L321.866 66.455L332.84 55.304V17.957C332.84 10.759 329.182 7.16 321.866 7.16H185.399L175.31 17.426ZM339.92 17.957V672.043C339.92 683.961 333.902 689.92 321.866 689.92H17.9571C6.03909 689.92 0.0800781 683.961 0.0800781 672.043V17.957C0.0800781 6.03901 6.03909 0.0800037 17.9571 0.0800037H321.866C333.902 0.0800037 339.92 6.03901 339.92 17.957Z" fill="#9B9DAD"/>
</svg>
