<svg width="28" height="16" viewBox="0 0 28 16" fill="none" xmlns="http://www.w3.org/2000/svg">
<g filter="url(#filter0_d_8_412)">
<mask id="path-1-outside-1_8_412" maskUnits="userSpaceOnUse" x="-1" y="-1" width="30" height="17" fill="black">
<rect fill="white" x="-1" y="-1" width="30" height="17"/>
<path d="M0.986328 0.830078L1.37695 1.02539H3.14453L3.54492 1.2207L3.34961 2.01172C4.03971 7.38932 5.2181 10.0781 6.88477 10.0781H7.08984L8.85742 2.40234V2.20703C8.85742 1.84896 8.72721 1.45508 8.4668 1.02539L8.85742 0.830078H11.8066C12.0671 0.869141 12.1973 0.999349 12.1973 1.2207L7.87109 14.6094C7.20703 14.8698 6.02539 15 4.32617 15H4.13086C3.87044 15 3.74023 14.8698 3.74023 14.6094C4.17643 14.6094 5.0944 13.6914 6.49414 11.8555V11.2598C4.24154 10.2572 2.53581 8.42122 1.37695 5.75195C0.719401 4.27409 0.260417 2.69857 0 1.02539C0.657552 1.02539 0.986328 0.960286 0.986328 0.830078ZM15.3027 4.9707H15.7422C16.3932 5.38086 17.7995 6.97917 19.9609 9.76562C19.9609 9.86979 20.0098 10.0163 20.1074 10.2051C19.6517 11.1621 18.1966 12.7116 15.7422 14.8535C15.5469 14.8535 15.4492 14.9023 15.4492 15C14.8047 15 13.1576 13.3529 10.5078 10.0586C13.0273 6.66667 14.6257 4.9707 15.3027 4.9707ZM12.7539 9.05273V9.77539C12.7539 10.5046 13.623 11.5104 15.3613 12.793H15.8008C16.4062 12.793 17.2168 12.0703 18.2324 10.625V10.4785C17.6855 8.95508 16.7188 7.85156 15.332 7.16797H14.8926C14.3066 7.16797 13.5938 7.79622 12.7539 9.05273ZM20.9961 4.93164H23.2031C23.3854 4.95768 23.4766 5.04883 23.4766 5.20508C23.2031 5.70638 23.0664 6.11979 23.0664 6.44531L23.2031 8.10547L23.0664 8.92578C23.0664 11.9206 23.6165 13.6686 24.7168 14.1699H24.8633C25.2865 13.8965 25.5599 12.1973 25.6836 9.07227L25.2734 5.06836C25.7682 4.97721 26.1816 4.93164 26.5137 4.93164H27.4805L27.7539 5.06836C27.5065 5.4069 27.3242 6.00586 27.207 6.86523C27.2982 7.49023 27.3438 7.99479 27.3438 8.37891V11.416C27.3438 13.3626 26.5169 14.5573 24.8633 15H24.7168C22.5098 13.6198 21.4062 12.3796 21.4062 11.2793V9.48242C21.4062 7.45117 21.2695 5.93424 20.9961 4.93164Z"/>
</mask>
<path d="M0.986328 0.830078L1.37695 1.02539H3.14453L3.54492 1.2207L3.34961 2.01172C4.03971 7.38932 5.2181 10.0781 6.88477 10.0781H7.08984L8.85742 2.40234V2.20703C8.85742 1.84896 8.72721 1.45508 8.4668 1.02539L8.85742 0.830078H11.8066C12.0671 0.869141 12.1973 0.999349 12.1973 1.2207L7.87109 14.6094C7.20703 14.8698 6.02539 15 4.32617 15H4.13086C3.87044 15 3.74023 14.8698 3.74023 14.6094C4.17643 14.6094 5.0944 13.6914 6.49414 11.8555V11.2598C4.24154 10.2572 2.53581 8.42122 1.37695 5.75195C0.719401 4.27409 0.260417 2.69857 0 1.02539C0.657552 1.02539 0.986328 0.960286 0.986328 0.830078ZM15.3027 4.9707H15.7422C16.3932 5.38086 17.7995 6.97917 19.9609 9.76562C19.9609 9.86979 20.0098 10.0163 20.1074 10.2051C19.6517 11.1621 18.1966 12.7116 15.7422 14.8535C15.5469 14.8535 15.4492 14.9023 15.4492 15C14.8047 15 13.1576 13.3529 10.5078 10.0586C13.0273 6.66667 14.6257 4.9707 15.3027 4.9707ZM12.7539 9.05273V9.77539C12.7539 10.5046 13.623 11.5104 15.3613 12.793H15.8008C16.4062 12.793 17.2168 12.0703 18.2324 10.625V10.4785C17.6855 8.95508 16.7188 7.85156 15.332 7.16797H14.8926C14.3066 7.16797 13.5938 7.79622 12.7539 9.05273ZM20.9961 4.93164H23.2031C23.3854 4.95768 23.4766 5.04883 23.4766 5.20508C23.2031 5.70638 23.0664 6.11979 23.0664 6.44531L23.2031 8.10547L23.0664 8.92578C23.0664 11.9206 23.6165 13.6686 24.7168 14.1699H24.8633C25.2865 13.8965 25.5599 12.1973 25.6836 9.07227L25.2734 5.06836C25.7682 4.97721 26.1816 4.93164 26.5137 4.93164H27.4805L27.7539 5.06836C27.5065 5.4069 27.3242 6.00586 27.207 6.86523C27.2982 7.49023 27.3438 7.99479 27.3438 8.37891V11.416C27.3438 13.3626 26.5169 14.5573 24.8633 15H24.7168C22.5098 13.6198 21.4062 12.3796 21.4062 11.2793V9.48242C21.4062 7.45117 21.2695 5.93424 20.9961 4.93164Z" fill="url(#paint0_linear_8_412)"/>
<path d="M0.986328 0.830078L1.43354 -0.0643492C1.12355 -0.219343 0.755414 -0.202779 0.460597 -0.0205727C0.16578 0.161634 -0.0136719 0.4835 -0.0136719 0.830078H0.986328ZM1.37695 1.02539L0.92974 1.91982C1.06859 1.98925 1.22171 2.02539 1.37695 2.02539V1.02539ZM3.14453 1.02539L3.58295 0.126622C3.4464 0.0600107 3.29647 0.0253906 3.14453 0.0253906V1.02539ZM3.54492 1.2207L4.51577 1.46042C4.62874 1.00288 4.40692 0.528556 3.98335 0.321935L3.54492 1.2207ZM3.34961 2.01172L2.37877 1.772C2.34914 1.89199 2.34201 2.01642 2.35774 2.139L3.34961 2.01172ZM7.08984 10.0781V11.0781C7.55567 11.0781 7.9598 10.7565 8.06434 10.3025L7.08984 10.0781ZM8.85742 2.40234L9.83192 2.62675C9.84887 2.55315 9.85742 2.47787 9.85742 2.40234H8.85742ZM8.4668 1.02539L8.01958 0.130963C7.76975 0.255878 7.58356 0.479586 7.50606 0.747937C7.42856 1.01629 7.46683 1.30482 7.6116 1.54369L8.4668 1.02539ZM8.85742 0.830078V-0.169922C8.70218 -0.169922 8.54906 -0.133777 8.41021 -0.0643492L8.85742 0.830078ZM11.8066 0.830078L11.955 -0.158858C11.9059 -0.166224 11.8563 -0.169922 11.8066 -0.169922V0.830078ZM12.1973 1.2207L13.1488 1.52817C13.1809 1.42884 13.1973 1.32509 13.1973 1.2207H12.1973ZM7.87109 14.6094L8.23618 15.5403C8.51524 15.4309 8.73049 15.2021 8.82265 14.9168L7.87109 14.6094ZM3.74023 14.6094V13.6094C3.18795 13.6094 2.74023 14.0571 2.74023 14.6094H3.74023ZM6.49414 11.8555L7.28938 12.4618C7.4222 12.2876 7.49414 12.0745 7.49414 11.8555H6.49414ZM6.49414 11.2598H7.49414C7.49414 10.8648 7.26163 10.5068 6.90077 10.3462L6.49414 11.2598ZM1.37695 5.75195L2.29427 5.3537L2.2906 5.34544L1.37695 5.75195ZM0 1.02539V0.0253906C-0.292075 0.0253906 -0.569552 0.153084 -0.759536 0.374926C-0.949521 0.596767 -1.03302 0.890581 -0.988104 1.17918L0 1.02539ZM0.539115 1.72451L0.92974 1.91982L1.82417 0.130963L1.43354 -0.0643492L0.539115 1.72451ZM1.37695 2.02539H3.14453V0.0253906H1.37695V2.02539ZM2.70611 1.92416L3.1065 2.11947L3.98335 0.321935L3.58295 0.126622L2.70611 1.92416ZM2.57408 0.980989L2.37877 1.772L4.32045 2.25143L4.51577 1.46042L2.57408 0.980989ZM2.35774 2.139C2.70652 4.8568 3.18797 6.98639 3.83507 8.46292C4.45475 9.87688 5.41051 11.0781 6.88477 11.0781V9.07812C6.69236 9.07812 6.22559 8.93497 5.66688 7.66012C5.1356 6.44786 4.68281 4.54424 4.34148 1.88443L2.35774 2.139ZM6.88477 11.0781H7.08984V9.07812H6.88477V11.0781ZM8.06434 10.3025L9.83192 2.62675L7.88293 2.17794L6.11535 9.85372L8.06434 10.3025ZM9.85742 2.40234V2.20703H7.85742V2.40234H9.85742ZM9.85742 2.20703C9.85742 1.60682 9.64072 1.03299 9.32199 0.507089L7.6116 1.54369C7.81371 1.87717 7.85742 2.09109 7.85742 2.20703H9.85742ZM8.91401 1.91982L9.30464 1.72451L8.41021 -0.0643492L8.01958 0.130963L8.91401 1.91982ZM8.85742 1.83008H11.8066V-0.169922H8.85742V1.83008ZM11.6583 1.81901C11.657 1.81882 11.6269 1.81439 11.5799 1.79402C11.531 1.77284 11.4617 1.73334 11.3925 1.66414C11.2331 1.50472 11.1973 1.31791 11.1973 1.2207H13.1973C13.1973 0.902143 13.0963 0.53955 12.8067 0.249924C12.5376 -0.0191534 12.2089 -0.120777 11.955 -0.158858L11.6583 1.81901ZM11.2457 0.913234L6.91954 14.3019L8.82265 14.9168L13.1488 1.52817L11.2457 0.913234ZM7.50601 13.6784C7.03572 13.8628 6.02632 14 4.32617 14V16C6.02447 16 7.37834 15.8768 8.23618 15.5403L7.50601 13.6784ZM4.32617 14H4.13086V16H4.32617V14ZM4.13086 14C4.1548 14 4.35642 14.0067 4.545 14.1952C4.73357 14.3838 4.74023 14.5854 4.74023 14.6094H2.74023C2.74023 14.8937 2.812 15.2907 3.13078 15.6095C3.44957 15.9282 3.84651 16 4.13086 16V14ZM3.74023 15.6094C4.15941 15.6094 4.5077 15.4081 4.71883 15.265C4.96168 15.1004 5.21149 14.8795 5.46297 14.628C5.96882 14.1222 6.57978 13.3925 7.28938 12.4618L5.6989 11.2492C5.00876 12.1544 4.46087 12.8017 4.04875 13.2138C3.84124 13.4213 3.69229 13.5446 3.5966 13.6095C3.46919 13.6959 3.53916 13.6094 3.74023 13.6094V15.6094ZM7.49414 11.8555V11.2598H5.49414V11.8555H7.49414ZM6.90077 10.3462C4.91719 9.46331 3.37247 7.83729 2.29424 5.35372L0.45967 6.15019C1.69915 9.00516 3.56588 11.051 6.08751 12.1734L6.90077 10.3462ZM2.2906 5.34544C1.67055 3.95186 1.23559 2.46171 0.988104 0.8716L-0.988104 1.17918C-0.714758 2.93543 -0.231745 4.59632 0.463308 6.15847L2.2906 5.34544ZM0 2.02539C0.344427 2.02539 0.670593 2.00967 0.933994 1.95751C1.05696 1.93317 1.24932 1.88582 1.43542 1.77527C1.62483 1.66274 1.98633 1.3646 1.98633 0.830078H-0.0136719C-0.0136719 0.619461 0.0575691 0.432676 0.159932 0.290787C0.253229 0.161464 0.356674 0.089813 0.413947 0.0557895C0.517848 -0.00593376 0.586924 -0.012593 0.545498 -0.00439C0.480123 0.00855565 0.313125 0.0253906 0 0.0253906V2.02539ZM15.7422 4.9707L16.2752 4.12461C16.1156 4.02406 15.9308 3.9707 15.7422 3.9707V4.9707ZM19.9609 9.76562H20.9609C20.9609 9.54369 20.8871 9.32807 20.7511 9.15271L19.9609 9.76562ZM20.1074 10.2051L21.0103 10.635C21.1448 10.3526 21.1394 10.0235 20.9956 9.74566L20.1074 10.2051ZM15.7422 14.8535V15.8535C15.984 15.8535 16.2175 15.7659 16.3997 15.607L15.7422 14.8535ZM15.4492 15V16C16.0015 16 16.4492 15.5523 16.4492 15H15.4492ZM10.5078 10.0586L9.70505 9.4623C9.43355 9.8278 9.44323 10.3306 9.7286 10.6854L10.5078 10.0586ZM12.7539 9.05273L11.9225 8.49704C11.8126 8.66152 11.7539 8.8549 11.7539 9.05273H12.7539ZM15.3613 12.793L14.7676 13.5976C14.9396 13.7245 15.1476 13.793 15.3613 13.793V12.793ZM18.2324 10.625L19.0506 11.1999C19.1689 11.0316 19.2324 10.8308 19.2324 10.625H18.2324ZM18.2324 10.4785H19.2324C19.2324 10.3633 19.2125 10.249 19.1736 10.1407L18.2324 10.4785ZM15.332 7.16797L15.7742 6.27103C15.6367 6.20323 15.4854 6.16797 15.332 6.16797V7.16797ZM15.3027 5.9707H15.7422V3.9707H15.3027V5.9707ZM15.2092 5.81679C15.3945 5.9336 15.8203 6.32599 16.5344 7.13761C17.218 7.91459 18.0957 8.99255 19.1708 10.3785L20.7511 9.15271C19.6647 7.75224 18.7586 6.63782 18.0359 5.81649C17.3438 5.0298 16.7409 4.41797 16.2752 4.12461L15.2092 5.81679ZM18.9609 9.76562C18.9609 10.1241 19.1094 10.4521 19.2192 10.6645L20.9956 9.74566C20.9797 9.71482 20.968 9.69009 20.9597 9.67106C20.9513 9.65183 20.9474 9.64087 20.9462 9.63739C20.945 9.63354 20.948 9.6418 20.9516 9.66047C20.9552 9.67862 20.9609 9.71504 20.9609 9.76562H18.9609ZM19.2046 9.77514C19.0463 10.1074 18.6583 10.6412 17.9454 11.4004C17.249 12.1419 16.2986 13.0407 15.0847 14.1001L16.3997 15.607C17.6402 14.5244 18.6445 13.5775 19.4033 12.7695C20.1454 11.9792 20.7128 11.2598 21.0103 10.635L19.2046 9.77514ZM15.7422 13.8535C15.5935 13.8535 15.333 13.8668 15.0752 13.9957C14.9322 14.0672 14.7648 14.1872 14.6355 14.3812C14.5019 14.5815 14.4492 14.8006 14.4492 15H16.4492C16.4492 15.1506 16.4087 15.3269 16.2996 15.4906C16.1946 15.648 16.0639 15.7375 15.9697 15.7846C15.8095 15.8646 15.6956 15.8535 15.7422 15.8535V13.8535ZM15.4492 14C15.5688 14 15.6219 14.0343 15.5784 14.0143C15.5437 13.9983 15.4729 13.9593 15.3615 13.8791C15.1379 13.7185 14.8323 13.4523 14.4376 13.0575C13.6521 12.2721 12.6043 11.0695 11.287 9.43184L9.7286 10.6854C11.061 12.3419 12.1617 13.6101 13.0234 14.4718C13.4522 14.9006 13.8448 15.252 14.1942 15.5032C14.3692 15.629 14.5535 15.7443 14.7426 15.8313C14.9229 15.9142 15.1685 16 15.4492 16V14ZM11.3106 10.6549C12.5625 8.96946 13.5648 7.73408 14.3239 6.92852C14.7055 6.52366 15.0021 6.25275 15.2198 6.09048C15.486 5.89204 15.4837 5.9707 15.3027 5.9707V3.9707C14.7832 3.9707 14.3272 4.26136 14.0246 4.48691C13.6734 4.74863 13.2861 5.11371 12.8684 5.55683C12.0293 6.44724 10.9726 7.7558 9.70505 9.4623L11.3106 10.6549ZM11.7539 9.05273V9.77539H13.7539V9.05273H11.7539ZM11.7539 9.77539C11.7539 10.5112 12.1725 11.1789 12.6491 11.7305C13.1528 12.3134 13.8709 12.936 14.7676 13.5976L15.955 11.9883C15.1135 11.3674 14.5279 10.8458 14.1624 10.4228C13.7699 9.96856 13.7539 9.76872 13.7539 9.77539H11.7539ZM15.3613 13.793H15.8008V11.793H15.3613V13.793ZM15.8008 13.793C16.4807 13.793 17.0706 13.4054 17.5283 12.9974C18.0152 12.5633 18.5225 11.9516 19.0506 11.1999L17.4142 10.0501C16.9268 10.7438 16.5209 11.216 16.1973 11.5046C15.8444 11.8192 15.7263 11.793 15.8008 11.793V13.793ZM19.2324 10.625V10.4785H17.2324V10.625H19.2324ZM19.1736 10.1407C18.5437 8.3859 17.4052 7.07507 15.7742 6.27103L14.8899 8.06491C16.0323 8.62805 16.8274 9.52426 17.2912 10.8164L19.1736 10.1407ZM15.332 6.16797H14.8926V8.16797H15.332V6.16797ZM14.8926 6.16797C14.244 6.16797 13.6897 6.50787 13.2573 6.88892C12.8094 7.28366 12.3658 7.83383 11.9225 8.49704L13.5853 9.60843C13.9819 9.01513 14.3146 8.62292 14.5796 8.3894C14.8601 8.1422 14.9552 8.16797 14.8926 8.16797V6.16797ZM20.9961 4.93164V3.93164C20.6844 3.93164 20.3906 4.07696 20.2014 4.32465C20.0122 4.57234 19.9493 4.89407 20.0313 5.19476L20.9961 4.93164ZM23.2031 4.93164L23.3445 3.94169C23.2977 3.935 23.2504 3.93164 23.2031 3.93164V4.93164ZM23.4766 5.20508L24.3545 5.68393C24.4346 5.53704 24.4766 5.3724 24.4766 5.20508H23.4766ZM23.0664 6.44531H22.0664C22.0664 6.47271 22.0675 6.50009 22.0698 6.52739L23.0664 6.44531ZM23.2031 8.10547L24.1895 8.26987C24.2031 8.18845 24.2065 8.10566 24.1998 8.02339L23.2031 8.10547ZM23.0664 8.92578L22.08 8.76138C22.071 8.81571 22.0664 8.8707 22.0664 8.92578H23.0664ZM24.7168 14.1699L24.3022 15.0799C24.4324 15.1392 24.5737 15.1699 24.7168 15.1699V14.1699ZM24.8633 14.1699V15.1699C25.0558 15.1699 25.2443 15.1143 25.406 15.0098L24.8633 14.1699ZM25.6836 9.07227L26.6828 9.11182C26.6847 9.06462 26.6832 9.01735 26.6784 8.97036L25.6836 9.07227ZM25.2734 5.06836L25.0923 4.08491C24.5796 4.17934 24.2255 4.65172 24.2786 5.17027L25.2734 5.06836ZM27.4805 4.93164L27.9277 4.03721C27.7888 3.96779 27.6357 3.93164 27.4805 3.93164V4.93164ZM27.7539 5.06836L28.5613 5.65838C28.735 5.42072 28.7951 5.11862 28.7257 4.83257C28.6563 4.54651 28.4644 4.30557 28.2011 4.17393L27.7539 5.06836ZM27.207 6.86523L26.2162 6.73012C26.2036 6.82286 26.204 6.91692 26.2175 7.00954L27.207 6.86523ZM24.8633 15V16C24.9506 16 25.0375 15.9886 25.1219 15.966L24.8633 15ZM24.7168 15L24.1866 15.8479C24.3456 15.9473 24.5293 16 24.7168 16V15ZM20.9961 5.93164H23.2031V3.93164H20.9961V5.93164ZM23.0617 5.92159C23.0276 5.91671 22.8617 5.88728 22.7011 5.72664C22.5206 5.54611 22.4766 5.33213 22.4766 5.20508H24.4766C24.4766 4.92178 24.387 4.5841 24.1153 4.31242C23.8635 4.06064 23.561 3.97261 23.3445 3.94169L23.0617 5.92159ZM22.5987 4.72623C22.2973 5.27877 22.0664 5.86973 22.0664 6.44531H24.0664C24.0664 6.36985 24.109 6.134 24.3545 5.68393L22.5987 4.72623ZM22.0698 6.52739L22.2065 8.18754L24.1998 8.02339L24.063 6.36324L22.0698 6.52739ZM22.2167 7.94107L22.08 8.76138L24.0528 9.09018L24.1895 8.26987L22.2167 7.94107ZM22.0664 8.92578C22.0664 10.4691 22.2063 11.7701 22.5251 12.7831C22.8414 13.7881 23.3855 14.6623 24.3022 15.0799L25.1314 13.2599C24.9478 13.1763 24.6667 12.9258 24.4329 12.1827C24.2016 11.4477 24.0664 10.3772 24.0664 8.92578H22.0664ZM24.7168 15.1699H24.8633V13.1699H24.7168V15.1699ZM25.406 15.0098C25.8134 14.7466 26.0001 14.3008 26.0955 14.0305C26.2112 13.7029 26.3004 13.3007 26.373 12.8493C26.5193 11.9406 26.6204 10.6877 26.6828 9.11182L24.6844 9.03271C24.6231 10.5819 24.5256 11.7411 24.3984 12.5316C24.3344 12.9297 24.2681 13.1989 24.2097 13.3645C24.1309 13.5874 24.1247 13.4565 24.3206 13.33L25.406 15.0098ZM26.6784 8.97036L26.2682 4.96645L24.2786 5.17027L24.6888 9.17417L26.6784 8.97036ZM25.4546 6.05181C25.9168 5.96667 26.2649 5.93164 26.5137 5.93164V3.93164C26.0984 3.93164 25.6197 3.98775 25.0923 4.08491L25.4546 6.05181ZM26.5137 5.93164H27.4805V3.93164H26.5137V5.93164ZM27.0333 5.82607L27.3067 5.96279L28.2011 4.17393L27.9277 4.03721L27.0333 5.82607ZM26.9465 4.47834C26.5423 5.03145 26.3367 5.84659 26.2162 6.73012L28.1979 7.00035C28.3118 6.16513 28.4707 5.78236 28.5613 5.65838L26.9465 4.47834ZM26.2175 7.00954C26.3055 7.61298 26.3438 8.06383 26.3438 8.37891H28.3438C28.3438 7.92575 28.2909 7.36749 28.1966 6.72093L26.2175 7.00954ZM26.3438 8.37891V11.416H28.3438V8.37891H26.3438ZM26.3438 11.416C26.3438 12.2539 26.1656 12.821 25.9014 13.2029C25.6461 13.5716 25.2454 13.8625 24.6047 14.034L25.1219 15.966C26.1348 15.6948 26.9743 15.167 27.5459 14.3411C28.1084 13.5283 28.3438 12.5248 28.3438 11.416H26.3438ZM24.8633 14H24.7168V16H24.8633V14ZM25.247 14.1521C24.1839 13.4873 23.4443 12.8906 22.981 12.3699C22.5118 11.8426 22.4062 11.4857 22.4062 11.2793H20.4062C20.4062 12.1732 20.8525 12.9865 21.4868 13.6994C22.127 14.4189 23.0426 15.1325 24.1866 15.8479L25.247 14.1521ZM22.4062 11.2793V9.48242H20.4062V11.2793H22.4062ZM22.4062 9.48242C22.4062 7.42983 22.2705 5.80392 21.9609 4.66852L20.0313 5.19476C20.2686 6.06457 20.4062 7.47251 20.4062 9.48242H22.4062Z" fill="#FFDD80" mask="url(#path-1-outside-1_8_412)"/>
</g>
<defs>
<filter id="filter0_d_8_412" x="0" y="0.830078" width="27.7539" height="15.1699" filterUnits="userSpaceOnUse" color-interpolation-filters="sRGB">
<feFlood flood-opacity="0" result="BackgroundImageFix"/>
<feColorMatrix in="SourceAlpha" type="matrix" values="0 0 0 0 0 0 0 0 0 0 0 0 0 0 0 0 0 0 127 0" result="hardAlpha"/>
<feOffset dy="1"/>
<feComposite in2="hardAlpha" operator="out"/>
<feColorMatrix type="matrix" values="0 0 0 0 0.620833 0 0 0 0 0.343183 0 0 0 0 0.204358 0 0 0 1 0"/>
<feBlend mode="normal" in2="BackgroundImageFix" result="effect1_dropShadow_8_412"/>
<feBlend mode="normal" in="SourceGraphic" in2="effect1_dropShadow_8_412" result="shape"/>
</filter>
<linearGradient id="paint0_linear_8_412" x1="14.5" y1="-3" x2="14.5" y2="20" gradientUnits="userSpaceOnUse">
<stop stop-color="#F7A74F"/>
<stop offset="1" stop-color="#F87F46"/>
</linearGradient>
</defs>
</svg>
